<svg width="66" height="66" viewBox="0 0 66 66" fill="none" xmlns="http://www.w3.org/2000/svg">
<path d="M6.53296 9.79956H58.797V55.5306H6.53296V9.79956Z" stroke="#334155" stroke-width="1.3066"/>
<path d="M9.79956 13.0659H25.0215V52.2639H9.79956V13.0659Z" fill="url(#paint0_linear_57_129)" stroke="#334155" stroke-width="0.6533"/>
<path d="M25.0215 13.0659H40.2434V52.2639H25.0215V13.0659Z" fill="url(#paint1_linear_57_129)"/>
<path d="M25.0215 13.0659H40.2434V13.0659V52.2639V52.2639H25.0215V52.2639V13.0659V13.0659V13.0659" stroke="#334155" stroke-width="0.6533"/>
<path d="M40.2432 13.0659H55.4651V52.2639H40.2432V13.0659Z" fill="url(#paint2_linear_57_129)" stroke="#334155" stroke-width="0.6533"/>
<path d="M26.6533 30H27.3066C27.6672 30 27.9599 30.2927 27.9599 30.6533V34.5731C27.9599 34.9337 27.6672 35.2264 27.3066 35.2264H26.6533C26.2927 35.2264 26 34.9337 26 34.5731V30.6533C26 30.2927 26.2927 30 26.6533 30Z" fill="#334155"/>
<path d="M40.5 52.5L25 32.5L40 13" stroke="url(#paint3_linear_57_129)" stroke-width="0.4" stroke-dasharray="1.31 1.31"/>
<path d="M25 52.5L32.5 13L40.5 52.5" stroke="url(#paint4_linear_57_129)" stroke-width="0.4" stroke-dasharray="1.31 1.31"/>
<defs>
<linearGradient id="paint0_linear_57_129" x1="17.4105" y1="13.0659" x2="17.4105" y2="52.2639" gradientUnits="userSpaceOnUse">
<stop stop-color="#02BCFF"/>
<stop offset="1" stop-color="#017199"/>
</linearGradient>
<linearGradient id="paint1_linear_57_129" x1="32.6324" y1="13.0659" x2="32.6324" y2="52.2639" gradientUnits="userSpaceOnUse">
<stop stop-color="#02BCFF"/>
<stop offset="1" stop-color="#017199"/>
</linearGradient>
<linearGradient id="paint2_linear_57_129" x1="47.8541" y1="13.0659" x2="47.8541" y2="52.2639" gradientUnits="userSpaceOnUse">
<stop stop-color="#02BCFF"/>
<stop offset="1" stop-color="#017199"/>
</linearGradient>
<linearGradient id="paint3_linear_57_129" x1="31.75" y1="13" x2="31.75" y2="52" gradientUnits="userSpaceOnUse">
<stop stop-color="white"/>
<stop offset="1" stop-color="#999999"/>
</linearGradient>
<linearGradient id="paint4_linear_57_129" x1="32.25" y1="13" x2="32.25" y2="52" gradientUnits="userSpaceOnUse">
<stop stop-color="white"/>
<stop offset="1" stop-color="#999999"/>
</linearGradient>
</defs>
</svg>
